<?xml version="1.0" encoding="utf-8"?>
<!-- Generator: Adobe Illustrator 27.2.0, SVG Export Plug-In . SVG Version: 6.00 Build 0)  -->
<svg version="1.1" id="Capa_1" xmlns="http://www.w3.org/2000/svg" xmlns:xlink="http://www.w3.org/1999/xlink" x="0px" y="0px"
	 viewBox="0 0 640 480" style="enable-background:new 0 0 640 480;" xml:space="preserve">
<style type="text/css">
	.st0{fill:#1AD327;}
	.st1{fill:#FF7F00;}
</style>
<g>
	<g>
		<path class="st0" d="M254.58,230.95h9.51c1.58,0,2.97-0.54,4.03-1.57c0.02-0.02,0.04-0.05,0.06-0.07c0.91,0.8,2.39,1.65,4.6,1.65
			h10.36c1.58,0,2.96-0.56,4.02-1.61c1.07-1.07,1.61-2.55,1.61-4.41c0-0.82-0.12-1.61-0.35-2.37c-0.22-0.73-0.5-1.35-0.83-1.88
			l-0.69-1.09c0.49-0.9,0.74-1.98,0.74-3.25c0-0.7-0.11-1.38-0.28-2.04h2.4v10.27c0,1.05,0.14,1.94,0.44,2.72
			c0.37,0.99,1,1.84,1.82,2.46c0.71,0.53,1.54,0.89,2.46,1.07c0.65,0.13,1.34,0.19,2.13,0.19c0.68,0,1.39-0.04,2.09-0.13
			c0.73-0.09,1.26-0.19,1.69-0.31l2.59-0.7v-1.75c0.39,0.69,0.93,1.3,1.62,1.79c1.2,0.85,2.74,1.27,4.71,1.27
			c0.79,0,1.48-0.07,2.1-0.21c0.5-0.11,0.99-0.25,1.45-0.42l1.73-0.62l0.47-1.78c0.16-0.58,0.31-1.18,0.47-1.8h1.01
			c0.17,0.58,0.38,1.11,0.61,1.57c0.39,0.79,0.94,1.45,1.61,1.96c0.63,0.49,1.39,0.84,2.26,1.05c0.67,0.16,1.41,0.24,2.26,0.24
			c1.18,0,2.25-0.17,3.19-0.5c0.81-0.29,1.51-0.68,2.1-1.17c0.27,0.17,0.56,0.33,0.86,0.48c0.97,0.48,2.1,0.84,3.34,1.08
			c1.15,0.22,2.39,0.33,3.68,0.33c3.86,0,6.94-0.88,9.15-2.61c2.43-1.91,3.72-4.55,3.72-7.63c0-2.86-1.01-5.3-2.92-7.06
			c-0.12-0.11-0.25-0.23-0.38-0.34c0.44-0.42,0.84-0.9,1.18-1.42c0.66-1.01,0.99-2.19,0.99-3.49c0-1.38-0.43-2.68-1.26-3.75
			c-0.69-0.9-1.62-1.63-2.75-2.17c-0.92-0.43-1.99-0.75-3.18-0.94c-1.05-0.17-2.2-0.26-3.4-0.26c-3.58,0-6.49,0.86-8.66,2.55
			c-1.87,1.46-3.05,3.38-3.48,5.62c-0.4-1.27-0.77-2.43-1.13-3.46c-0.43-1.2-1.43-2.82-3.82-3.72c-2.22-0.84-5.06-1-7.72-0.31
			c-1.16,0.3-2.02,0.63-2.72,1.04l-1.04,0.62l-0.44,1.12c-0.19-0.5-0.39-0.95-0.64-1.33l-1.03-1.63h-17.4
			c-0.99,0-1.91,0.24-2.72,0.66l-0.35-0.56h-13.64c-2.46,0-4.02,1.04-4.89,1.91c-0.87,0.87-1.91,2.43-1.91,4.89v9.81h-4.99v-10.52
			c0-1.05-0.14-1.94-0.44-2.72c-0.37-1-1-1.85-1.81-2.46c-0.7-0.53-1.53-0.89-2.46-1.08c-1.21-0.24-2.69-0.26-4.26-0.03
			c-0.62,0.09-1.07,0.16-1.36,0.21l-2.88,0.52v16.07h-4.99v-10.52c0-1.05-0.14-1.94-0.44-2.72c-0.37-1-1-1.85-1.81-2.46
			c-0.7-0.53-1.53-0.89-2.46-1.08c-1.21-0.24-2.69-0.26-4.26-0.03c-0.62,0.09-1.07,0.16-1.36,0.21l-2.88,0.52v8.84
			c-0.08-0.27-0.17-0.56-0.25-0.83c-0.5-1.66-0.98-3.15-1.44-4.45c-0.43-1.2-1.44-2.82-3.82-3.72c-2.22-0.83-5.05-1-7.72-0.31
			c-1.16,0.3-2.02,0.63-2.72,1.04l-1.05,0.62l-0.44,1.13c-0.17,0.44-0.41,1.08-0.71,1.9c-0.3,0.82-0.64,1.76-1,2.82l-1.13,3.27
			c-0.05,0.14-0.09,0.28-0.14,0.42c-0.27-0.48-0.58-0.87-0.87-1.16c-0.05-0.04-0.09-0.09-0.14-0.14c0.54-0.94,0.83-2.04,0.83-3.19
			c0-1.42-0.49-4.08-3.78-5.89c-1.85-1.02-4.15-1.51-7.02-1.51c-1.92,0-3.81,0.29-5.63,0.88c-1.91,0.61-3.63,1.55-5.11,2.79
			c-1.53,1.27-2.76,2.88-3.68,4.76c-0.93,1.92-1.4,4.14-1.4,6.6c0,2.34,0.43,4.47,1.28,6.32c0.85,1.86,2.04,3.44,3.52,4.71
			c1.46,1.24,3.18,2.17,5.12,2.77c1.82,0.56,3.78,0.85,5.82,0.85c0.77,0,1.54-0.04,2.31-0.13c0.76-0.08,1.52-0.2,2.24-0.36
			c0.74-0.16,1.43-0.36,2.05-0.58c0.7-0.25,1.29-0.51,1.83-0.82c0.25-0.14,0.48-0.29,0.7-0.44c0.28,0.31,0.6,0.6,0.95,0.86
			c1.2,0.85,2.74,1.27,4.71,1.27c0.79,0,1.48-0.07,2.1-0.21c0.5-0.11,0.99-0.25,1.45-0.42l1.73-0.62l0.47-1.78
			c0.16-0.58,0.31-1.18,0.47-1.8h1.01c0.17,0.57,0.38,1.1,0.62,1.58c0.39,0.79,0.94,1.45,1.61,1.96c0.63,0.48,1.39,0.84,2.26,1.05
			c0.67,0.16,1.41,0.24,2.26,0.24c1.18,0,2.25-0.17,3.19-0.5c0.79-0.28,1.47-0.66,2.04-1.13c0.92,0.71,2.31,1.38,4.28,1.38h9.51
			c1.58,0,2.97-0.54,4.04-1.58c0.02-0.02,0.04-0.05,0.06-0.07C250.9,230.11,252.37,230.95,254.58,230.95z M304.55,216.67
			c-0.36,1.11-0.69,2.15-0.99,3.1c-0.24,0.76-0.43,1.43-0.59,1.99v-7.46h0.44c0.73,0,1.41-0.13,2.05-0.36
			C305.14,214.88,304.83,215.79,304.55,216.67z"/>
		<path class="st0" d="M398.01,220.69l-0.69-1.09c0.49-0.9,0.74-1.98,0.74-3.25c0-0.82-0.12-1.62-0.36-2.38
			c-0.13-0.43-0.29-0.81-0.46-1.17c0.05-0.05,0.11-0.1,0.16-0.15c1.09-1.06,1.65-2.55,1.65-4.43c0-0.82-0.12-1.61-0.35-2.38
			c-0.22-0.73-0.5-1.34-0.83-1.87l-1.03-1.63H383.2c-2.46,0-4.02,1.04-4.89,1.91c-0.57,0.57-1.2,1.44-1.58,2.65
			c-0.45-0.56-0.93-1.09-1.47-1.55c-1.45-1.26-3.18-2.19-5.16-2.79c-1.82-0.54-3.85-0.82-6.02-0.82c-1,0-2.14,0.06-3.38,0.17
			c-1.39,0.13-2.73,0.4-4.06,0.84c-0.97,0.34-1.79,0.84-2.44,1.49c-0.65,0.65-1.43,1.81-1.43,3.62v16.57c0,2.7,1.53,4.84,4.15,5.84
			c0.68,0.27,1.41,0.48,2.19,0.63c0.63,0.12,1.25,0.22,1.89,0.3c0.65,0.08,1.29,0.14,1.9,0.17c0.58,0.03,1.09,0.04,1.54,0.04
			c2.13,0,4.13-0.3,5.94-0.88c1.94-0.63,3.64-1.6,5.06-2.89c0.46-0.42,0.88-0.89,1.27-1.37c0.37,1.27,1.03,2.18,1.61,2.76
			c0.87,0.87,2.43,1.91,4.89,1.91h10.36c1.58,0,2.96-0.56,4.02-1.61c1.07-1.07,1.61-2.55,1.61-4.41c0-0.82-0.12-1.61-0.35-2.37
			C398.62,221.83,398.35,221.22,398.01,220.69z M365.95,218.98v-4.7c0.33,0.41,0.52,1.27,0.52,2.39c0,0.9-0.12,1.43-0.22,1.72
			C366.13,218.73,366.02,218.9,365.95,218.98z"/>
		<path class="st0" d="M447.71,225.68c-0.36-1.31-0.77-2.81-1.25-4.51c-0.48-1.7-0.96-3.42-1.46-5.16c-0.5-1.76-1-3.46-1.51-5.11
			c-0.51-1.67-0.99-3.16-1.43-4.45c-0.43-1.2-1.44-2.82-3.82-3.72c-2.22-0.84-5.06-1-7.72-0.31c-1.16,0.3-2.02,0.63-2.72,1.04
			l-1.04,0.62l-0.44,1.13c-0.17,0.44-0.41,1.08-0.72,1.91c-0.3,0.82-0.64,1.76-1,2.82l-1.13,3.27c-0.41,1.18-0.8,2.34-1.16,3.46
			c-0.26,0.8-0.5,1.55-0.73,2.28h-5.43v-10.52c0-1.05-0.14-1.94-0.43-2.72c-0.37-1-1-1.85-1.82-2.46c-0.7-0.53-1.53-0.89-2.46-1.07
			c-1.21-0.24-2.69-0.26-4.26-0.03c-0.62,0.09-1.07,0.16-1.36,0.21l-2.88,0.52v21.27c0,2.46,1.04,4.02,1.91,4.89
			c0.87,0.87,2.43,1.91,4.89,1.91h9.51c1.21,0,2.31-0.33,3.24-0.94c1.18,0.79,2.67,1.19,4.57,1.19c0.79,0,1.48-0.07,2.1-0.21
			c0.5-0.11,0.99-0.25,1.45-0.42l1.73-0.62l0.47-1.78c0.16-0.58,0.31-1.18,0.47-1.8h1.01c0.17,0.58,0.38,1.11,0.61,1.57
			c0.39,0.79,0.94,1.45,1.61,1.97c0.63,0.48,1.39,0.84,2.25,1.04c0.67,0.16,1.41,0.24,2.26,0.24c1.18,0,2.25-0.17,3.19-0.5
			c1.15-0.41,2.09-1.02,2.77-1.82l1.21-1.41L447.71,225.68z"/>
		<path class="st0" d="M377.15,263.26l-0.69-1.09c0.49-0.9,0.74-1.98,0.74-3.25c0-0.83-0.12-1.63-0.36-2.38
			c-0.13-0.43-0.29-0.81-0.46-1.17c0.05-0.05,0.1-0.1,0.16-0.14c1.1-1.06,1.65-2.55,1.65-4.43c0-0.82-0.12-1.61-0.35-2.38
			c-0.22-0.73-0.5-1.34-0.83-1.87l-1.03-1.63h-13.64c-1.9,0-3.25,0.62-4.17,1.3l-0.89-1.41h-17.4c-1.58,0-2.98,0.55-4.05,1.59
			c-0.18,0.18-0.33,0.39-0.49,0.59c-2.28-1.78-5.42-2.68-9.37-2.68c-1.34,0-2.63,0.07-3.83,0.22c-1.32,0.16-2.51,0.43-3.53,0.79
			c-0.74,0.26-1.39,0.61-1.95,1.05l-0.93-1.46h-13.64c-2.46,0-4.02,1.04-4.89,1.91c-0.13,0.13-0.26,0.28-0.39,0.44
			c-0.35-0.54-0.77-1.02-1.28-1.4c-0.7-0.53-1.53-0.89-2.47-1.08c-1.21-0.24-2.68-0.26-4.26-0.03c-0.62,0.09-1.07,0.16-1.35,0.21
			l-2.88,0.52v3.38c-0.05-0.19-0.11-0.37-0.18-0.55c-0.37-1-1-1.85-1.82-2.46c-0.7-0.53-1.53-0.89-2.47-1.08
			c-1.21-0.24-2.68-0.26-4.26-0.03c-0.62,0.09-1.07,0.16-1.36,0.21l-2.88,0.52v0.88c-0.43-0.32-0.89-0.61-1.41-0.85
			c-0.92-0.43-1.99-0.75-3.19-0.95c-1.06-0.17-2.2-0.26-3.4-0.26c-3.57,0-6.49,0.86-8.66,2.55c-2.4,1.87-3.67,4.5-3.67,7.59
			c0,1.56,0.29,2.95,0.85,4.15c0.46,0.96,1.07,1.83,1.83,2.57c-0.45,0.36-0.88,0.78-1.27,1.25c-0.92,1.11-1.41,2.49-1.41,3.99
			c0,1.43,0.45,2.77,1.31,3.89c0.72,0.94,1.68,1.71,2.87,2.29c0.98,0.48,2.1,0.84,3.34,1.08c1.15,0.22,2.39,0.33,3.68,0.33
			c3.86,0,6.94-0.88,9.15-2.61c0.87-0.68,1.59-1.47,2.16-2.33c0.45,0.62,0.96,1.2,1.53,1.71c1.18,1.06,2.6,1.88,4.23,2.43
			c1.54,0.52,3.27,0.79,5.13,0.79c1.87,0,3.59-0.27,5.14-0.79c1.63-0.55,3.05-1.37,4.23-2.43c0.59-0.53,1.11-1.12,1.56-1.75
			c0.38,1.19,1.01,2.04,1.57,2.6c0.87,0.87,2.43,1.91,4.89,1.91h10.36c1.58,0,2.96-0.56,4.02-1.61c0.01-0.01,0.01-0.01,0.01-0.02
			c0.14,0.13,0.28,0.27,0.43,0.39c0.71,0.55,1.55,0.93,2.5,1.12c1.22,0.24,2.7,0.25,4.22,0.06c0.73-0.09,1.26-0.19,1.69-0.31
			l2.59-0.7v-0.74c0.23,0.22,0.47,0.43,0.72,0.61c0.6,0.45,1.29,0.8,2.05,1.04c0.72,0.22,1.52,0.34,2.39,0.34
			c1.5,0,2.89-0.43,4.12-1.29c1.28-0.9,2.2-2.21,2.66-3.81l0.31-1.1c0.03,0.89,0.16,1.67,0.42,2.37c0.37,1,1,1.84,1.82,2.46
			c0.71,0.53,1.54,0.89,2.46,1.07c0.65,0.13,1.34,0.19,2.12,0.19c0.68,0,1.39-0.04,2.09-0.13c0.73-0.09,1.26-0.19,1.69-0.31
			l2.59-0.7v-15.57h0.44c0.62,0,1.2-0.11,1.75-0.27v10.11c0,2.46,1.04,4.02,1.91,4.89s2.43,1.91,4.89,1.91h10.36
			c1.58,0,2.96-0.56,4.02-1.61c1.07-1.07,1.61-2.55,1.61-4.41c0-0.82-0.12-1.61-0.35-2.37C377.76,264.41,377.49,263.8,377.15,263.26
			z M339.51,265.92c-0.57-1-1.32-2.06-2.28-3.24c-0.14-0.17-0.28-0.34-0.42-0.51c0.25-0.28,0.48-0.58,0.71-0.89
			c0.93-1.28,1.5-2.75,1.71-4.38h0.9v10.12L339.51,265.92z"/>
	</g>
	<g>
		<path class="st1" d="M206.4,223.83c0,0.73-0.13,1.28-0.39,1.63c-0.26,0.36-0.67,0.7-1.24,1.03c-0.33,0.19-0.75,0.37-1.24,0.55
			c-0.5,0.18-1.04,0.33-1.63,0.46c-0.59,0.13-1.21,0.23-1.86,0.3c-0.65,0.07-1.3,0.11-1.93,0.11c-1.7,0-3.3-0.23-4.79-0.69
			s-2.79-1.16-3.89-2.09c-1.1-0.93-1.97-2.1-2.61-3.49c-0.64-1.4-0.96-3.02-0.96-4.86c0-1.94,0.35-3.63,1.05-5.07
			c0.7-1.44,1.62-2.64,2.77-3.6c1.15-0.96,2.46-1.67,3.94-2.15c1.48-0.47,3-0.71,4.56-0.71c2.25,0,4.03,0.36,5.34,1.08
			c1.31,0.72,1.97,1.66,1.97,2.82c0,0.62-0.15,1.15-0.46,1.6c-0.31,0.45-0.66,0.8-1.06,1.06c-0.59-0.35-1.33-0.7-2.22-1.05
			c-0.89-0.34-1.89-0.51-3-0.51c-1.99,0-3.57,0.57-4.74,1.7c-1.17,1.14-1.76,2.71-1.76,4.72c0,1.09,0.16,2.03,0.48,2.82
			c0.32,0.79,0.75,1.44,1.3,1.95c0.54,0.51,1.17,0.89,1.88,1.14s1.47,0.37,2.27,0.37c0.52,0,0.98-0.05,1.38-0.14
			c0.4-0.09,0.71-0.2,0.92-0.32v-3.34h-3.8c-0.14-0.26-0.28-0.6-0.41-1.03c-0.13-0.43-0.2-0.88-0.2-1.35c0-0.85,0.2-1.47,0.59-1.84
			c0.39-0.38,0.89-0.57,1.51-0.57h6c0.71,0,1.26,0.2,1.65,0.59c0.39,0.39,0.59,0.94,0.59,1.65V223.83z"/>
		<path class="st1" d="M215.41,206.48c0.4-0.24,1.01-0.46,1.83-0.67c0.82-0.21,1.64-0.32,2.47-0.32c1.18,0,2.23,0.17,3.14,0.51
			c0.91,0.34,1.5,0.88,1.76,1.61c0.43,1.23,0.89,2.66,1.38,4.29s0.99,3.32,1.49,5.06s0.98,3.45,1.45,5.15
			c0.47,1.69,0.89,3.19,1.24,4.49c-0.28,0.33-0.71,0.6-1.28,0.8c-0.57,0.2-1.24,0.3-2.02,0.3c-0.57,0-1.05-0.05-1.44-0.14
			c-0.39-0.09-0.71-0.24-0.96-0.43c-0.25-0.19-0.45-0.44-0.6-0.75s-0.29-0.66-0.41-1.06l-0.64-2.45h-6.42
			c-0.19,0.71-0.38,1.44-0.57,2.2c-0.19,0.76-0.38,1.49-0.57,2.2c-0.33,0.12-0.68,0.22-1.05,0.3c-0.37,0.08-0.81,0.12-1.33,0.12
			c-1.21,0-2.1-0.21-2.68-0.62c-0.58-0.41-0.87-0.99-0.87-1.72c0-0.33,0.05-0.66,0.14-0.99c0.09-0.33,0.2-0.72,0.32-1.17
			c0.17-0.64,0.4-1.43,0.69-2.38c0.3-0.95,0.62-1.97,0.98-3.07c0.35-1.1,0.73-2.23,1.14-3.39c0.4-1.16,0.78-2.25,1.14-3.28
			c0.35-1.03,0.68-1.95,0.98-2.75C215.02,207.53,215.25,206.91,215.41,206.48z M219.67,211.06c-0.33,0.99-0.7,2.1-1.12,3.32
			c-0.41,1.22-0.79,2.45-1.12,3.71h4.4c-0.33-1.28-0.67-2.52-1.01-3.74c-0.34-1.22-0.66-2.31-0.94-3.28H219.67z"/>
		<path class="st1" d="M236.38,227.45c-1.02,0-1.82-0.3-2.41-0.89c-0.59-0.59-0.89-1.4-0.89-2.41v-18.34
			c0.26-0.05,0.67-0.11,1.24-0.19c0.57-0.08,1.11-0.12,1.63-0.12c0.54,0,1.02,0.04,1.44,0.12c0.41,0.08,0.76,0.23,1.05,0.44
			s0.5,0.51,0.64,0.89s0.21,0.88,0.21,1.49v14.02h8.13c0.17,0.26,0.32,0.61,0.46,1.05c0.14,0.44,0.21,0.89,0.21,1.37
			c0,0.95-0.2,1.61-0.6,2c-0.4,0.39-0.93,0.58-1.6,0.58H236.38z"/>
		<path class="st1" d="M254.58,227.45c-1.02,0-1.82-0.3-2.41-0.89c-0.59-0.59-0.89-1.4-0.89-2.41v-18.34
			c0.26-0.05,0.67-0.11,1.24-0.19c0.57-0.08,1.11-0.12,1.63-0.12c0.54,0,1.02,0.04,1.44,0.12c0.41,0.08,0.76,0.23,1.05,0.44
			s0.5,0.51,0.64,0.89s0.21,0.88,0.21,1.49v14.02h8.12c0.17,0.26,0.32,0.61,0.46,1.05c0.14,0.44,0.21,0.89,0.21,1.37
			c0,0.95-0.2,1.61-0.6,2c-0.4,0.39-0.93,0.58-1.6,0.58H254.58z"/>
		<path class="st1" d="M269.49,209.15c0-1.02,0.29-1.82,0.89-2.41c0.59-0.59,1.4-0.89,2.41-0.89h11.71c0.17,0.26,0.31,0.6,0.44,1.03
			c0.13,0.43,0.2,0.88,0.2,1.35c0,0.9-0.2,1.54-0.59,1.92s-0.9,0.57-1.54,0.57h-7.49v3.3h7.98c0.17,0.26,0.31,0.6,0.44,1.01
			c0.13,0.41,0.2,0.86,0.2,1.33c0,0.9-0.19,1.54-0.57,1.92c-0.38,0.38-0.89,0.57-1.53,0.57h-6.53v3.73h9.12
			c0.17,0.26,0.31,0.6,0.44,1.03s0.2,0.88,0.2,1.35c0,0.9-0.2,1.54-0.59,1.93c-0.39,0.39-0.9,0.58-1.54,0.58h-10.36
			c-1.02,0-1.82-0.3-2.41-0.89c-0.59-0.59-0.89-1.4-0.89-2.41V209.15z"/>
		<path class="st1" d="M287.94,210.81c-0.17-0.26-0.32-0.61-0.46-1.06c-0.14-0.45-0.21-0.92-0.21-1.42c0-0.92,0.21-1.58,0.62-1.99
			c0.41-0.4,0.95-0.6,1.61-0.6h15.47c0.17,0.26,0.32,0.62,0.46,1.06c0.14,0.45,0.21,0.92,0.21,1.42c0,0.92-0.21,1.58-0.62,1.99
			c-0.41,0.4-0.95,0.6-1.61,0.6h-3.94v16.39c-0.26,0.07-0.67,0.14-1.22,0.21c-0.56,0.07-1.11,0.11-1.65,0.11
			c-0.54,0-1.02-0.04-1.44-0.12c-0.41-0.08-0.76-0.23-1.05-0.44c-0.28-0.21-0.5-0.51-0.64-0.89c-0.14-0.38-0.21-0.88-0.21-1.49
			v-13.77H287.94z"/>
		<path class="st1" d="M311.82,206.48c0.4-0.24,1.01-0.46,1.83-0.67c0.82-0.21,1.64-0.32,2.47-0.32c1.18,0,2.23,0.17,3.14,0.51
			c0.91,0.34,1.5,0.88,1.76,1.61c0.43,1.23,0.89,2.66,1.38,4.29s0.99,3.32,1.49,5.06s0.98,3.45,1.46,5.15
			c0.47,1.69,0.89,3.19,1.24,4.49c-0.28,0.33-0.71,0.6-1.28,0.8c-0.57,0.2-1.24,0.3-2.02,0.3c-0.57,0-1.05-0.05-1.44-0.14
			c-0.39-0.09-0.71-0.24-0.96-0.43c-0.25-0.19-0.45-0.44-0.6-0.75c-0.15-0.31-0.29-0.66-0.41-1.06l-0.64-2.45h-6.42
			c-0.19,0.71-0.38,1.44-0.57,2.2c-0.19,0.76-0.38,1.49-0.57,2.2c-0.33,0.12-0.68,0.22-1.05,0.3c-0.37,0.08-0.81,0.12-1.33,0.12
			c-1.21,0-2.1-0.21-2.68-0.62c-0.58-0.41-0.87-0.99-0.87-1.72c0-0.33,0.05-0.66,0.14-0.99s0.2-0.72,0.32-1.17
			c0.17-0.64,0.4-1.43,0.69-2.38c0.3-0.95,0.62-1.97,0.98-3.07c0.35-1.1,0.73-2.23,1.13-3.39c0.4-1.16,0.78-2.25,1.14-3.28
			c0.35-1.03,0.68-1.95,0.98-2.75S311.65,206.91,311.82,206.48z M316.07,211.06c-0.33,0.99-0.7,2.1-1.12,3.32
			c-0.41,1.22-0.79,2.45-1.12,3.71h4.4c-0.33-1.28-0.67-2.52-1.01-3.74s-0.66-2.31-0.94-3.28H316.07z"/>
		<path class="st1" d="M335.73,218.8c-1.04-0.35-1.99-0.71-2.84-1.08c-0.85-0.37-1.58-0.81-2.2-1.33c-0.62-0.52-1.09-1.14-1.44-1.86
			c-0.34-0.72-0.51-1.6-0.51-2.64c0-2.01,0.77-3.62,2.32-4.83c1.55-1.21,3.72-1.81,6.51-1.81c1.02,0,1.96,0.07,2.84,0.21
			c0.88,0.14,1.63,0.36,2.25,0.66c0.63,0.3,1.12,0.67,1.47,1.14c0.35,0.46,0.53,1,0.53,1.61c0,0.62-0.14,1.14-0.43,1.58
			c-0.28,0.44-0.63,0.81-1.03,1.12c-0.52-0.33-1.22-0.62-2.09-0.87c-0.88-0.25-1.83-0.37-2.87-0.37c-1.06,0-1.85,0.15-2.34,0.44
			c-0.5,0.3-0.75,0.67-0.75,1.12c0,0.35,0.15,0.65,0.46,0.87c0.31,0.23,0.77,0.43,1.38,0.62l1.88,0.6c2.22,0.71,3.93,1.61,5.13,2.71
			c1.19,1.1,1.79,2.6,1.79,4.49c0,2.01-0.79,3.64-2.38,4.88s-3.92,1.86-6.99,1.86c-1.09,0-2.1-0.09-3.03-0.27
			c-0.93-0.18-1.75-0.44-2.45-0.78c-0.7-0.34-1.24-0.77-1.63-1.28c-0.39-0.51-0.59-1.09-0.59-1.76c0-0.69,0.2-1.27,0.6-1.76
			c0.4-0.48,0.84-0.86,1.31-1.12c0.66,0.52,1.47,0.97,2.43,1.35c0.96,0.38,2,0.57,3.14,0.57c1.16,0,1.97-0.18,2.45-0.53
			c0.47-0.35,0.71-0.77,0.71-1.24s-0.19-0.83-0.57-1.08c-0.38-0.25-0.91-0.49-1.6-0.73L335.73,218.8z"/>
		<path class="st1" d="M364.43,227.92c-0.4,0-0.86-0.01-1.38-0.04s-1.06-0.07-1.61-0.14c-0.56-0.07-1.11-0.16-1.67-0.27
			s-1.07-0.25-1.54-0.44c-1.3-0.5-1.95-1.36-1.95-2.59v-16.57c0-0.5,0.14-0.88,0.41-1.15c0.27-0.27,0.64-0.49,1.12-0.66
			c1.02-0.33,2.09-0.55,3.23-0.66c1.14-0.11,2.15-0.16,3.05-0.16c1.84,0,3.52,0.23,5.02,0.67c1.5,0.45,2.79,1.14,3.87,2.08
			c1.08,0.94,1.91,2.11,2.5,3.53c0.59,1.42,0.89,3.1,0.89,5.04c0,1.89-0.28,3.54-0.85,4.95c-0.57,1.41-1.38,2.59-2.43,3.55
			s-2.31,1.67-3.78,2.15C367.83,227.68,366.21,227.92,364.43,227.92z M362.45,222.74c0.26,0.05,0.58,0.09,0.96,0.12
			c0.38,0.04,0.73,0.05,1.06,0.05c0.8,0,1.54-0.12,2.22-0.36c0.67-0.24,1.25-0.6,1.74-1.1c0.48-0.5,0.86-1.14,1.13-1.93
			c0.27-0.79,0.41-1.74,0.41-2.86c0-2.13-0.5-3.73-1.49-4.81c-0.99-1.08-2.32-1.61-3.97-1.61c-0.33,0-0.67,0.01-1.01,0.04
			c-0.34,0.02-0.69,0.06-1.05,0.11V222.74z"/>
		<path class="st1" d="M379.9,209.15c0-1.02,0.29-1.82,0.89-2.41c0.59-0.59,1.4-0.89,2.41-0.89h11.71c0.17,0.26,0.31,0.6,0.44,1.03
			c0.13,0.43,0.2,0.88,0.2,1.35c0,0.9-0.2,1.54-0.59,1.92s-0.9,0.57-1.54,0.57h-7.49v3.3h7.98c0.17,0.26,0.31,0.6,0.44,1.01
			c0.13,0.41,0.2,0.86,0.2,1.33c0,0.9-0.19,1.54-0.57,1.92c-0.38,0.38-0.89,0.57-1.53,0.57h-6.53v3.73h9.12
			c0.17,0.26,0.31,0.6,0.44,1.03s0.2,0.88,0.2,1.35c0,0.9-0.2,1.54-0.59,1.93c-0.39,0.39-0.9,0.58-1.54,0.58H383.2
			c-1.02,0-1.82-0.3-2.41-0.89c-0.59-0.59-0.89-1.4-0.89-2.41V209.15z"/>
		<path class="st1" d="M409.74,227.45c-1.02,0-1.82-0.3-2.41-0.89c-0.59-0.59-0.89-1.4-0.89-2.41v-18.34
			c0.26-0.05,0.67-0.11,1.24-0.19c0.57-0.08,1.11-0.12,1.63-0.12c0.54,0,1.02,0.04,1.44,0.12c0.41,0.08,0.76,0.23,1.05,0.44
			s0.5,0.51,0.64,0.89s0.21,0.88,0.21,1.49v14.02h8.12c0.17,0.26,0.32,0.61,0.46,1.05c0.14,0.44,0.21,0.89,0.21,1.37
			c0,0.95-0.2,1.61-0.6,2c-0.4,0.39-0.93,0.58-1.6,0.58H409.74z"/>
		<path class="st1" d="M429.58,206.48c0.4-0.24,1.01-0.46,1.83-0.67c0.82-0.21,1.64-0.32,2.47-0.32c1.18,0,2.23,0.17,3.14,0.51
			c0.91,0.34,1.5,0.88,1.76,1.61c0.43,1.23,0.89,2.66,1.38,4.29s0.99,3.32,1.49,5.06s0.98,3.45,1.46,5.15
			c0.47,1.69,0.89,3.19,1.24,4.49c-0.28,0.33-0.71,0.6-1.28,0.8c-0.57,0.2-1.24,0.3-2.02,0.3c-0.57,0-1.05-0.05-1.44-0.14
			c-0.39-0.09-0.71-0.24-0.96-0.43c-0.25-0.19-0.45-0.44-0.6-0.75c-0.15-0.31-0.29-0.66-0.41-1.06l-0.64-2.45h-6.42
			c-0.19,0.71-0.38,1.44-0.57,2.2c-0.19,0.76-0.38,1.49-0.57,2.2c-0.33,0.12-0.68,0.22-1.05,0.3c-0.37,0.08-0.81,0.12-1.33,0.12
			c-1.21,0-2.1-0.21-2.68-0.62c-0.58-0.41-0.87-0.99-0.87-1.72c0-0.33,0.05-0.66,0.14-0.99s0.2-0.72,0.32-1.17
			c0.17-0.64,0.4-1.43,0.69-2.38c0.3-0.95,0.62-1.97,0.98-3.07c0.35-1.1,0.73-2.23,1.13-3.39c0.4-1.16,0.78-2.25,1.14-3.28
			c0.35-1.03,0.68-1.95,0.98-2.75S429.41,206.91,429.58,206.48z M433.83,211.06c-0.33,0.99-0.7,2.1-1.12,3.32
			c-0.41,1.22-0.79,2.45-1.12,3.71h4.4c-0.33-1.28-0.67-2.52-1.01-3.74s-0.66-2.31-0.94-3.28H433.83z"/>
		<path class="st1" d="M261.79,261.38c-1.04-0.36-1.99-0.72-2.84-1.08c-0.85-0.37-1.58-0.81-2.2-1.33
			c-0.62-0.52-1.09-1.14-1.44-1.86s-0.51-1.6-0.51-2.64c0-2.01,0.77-3.62,2.32-4.83c1.55-1.21,3.72-1.81,6.51-1.81
			c1.02,0,1.96,0.07,2.84,0.21c0.88,0.14,1.63,0.36,2.25,0.66s1.12,0.67,1.47,1.13c0.35,0.46,0.53,1,0.53,1.61
			c0,0.62-0.14,1.14-0.43,1.58c-0.28,0.44-0.63,0.81-1.03,1.12c-0.52-0.33-1.22-0.62-2.09-0.87c-0.88-0.25-1.83-0.37-2.87-0.37
			c-1.06,0-1.85,0.15-2.34,0.44c-0.5,0.3-0.75,0.67-0.75,1.12c0,0.35,0.15,0.64,0.46,0.87c0.31,0.22,0.77,0.43,1.38,0.62l1.88,0.6
			c2.22,0.71,3.93,1.62,5.13,2.71c1.19,1.1,1.79,2.6,1.79,4.49c0,2.01-0.79,3.64-2.38,4.88s-3.92,1.86-6.99,1.86
			c-1.09,0-2.1-0.09-3.03-0.27c-0.93-0.18-1.75-0.44-2.45-0.78s-1.24-0.77-1.63-1.28c-0.39-0.51-0.59-1.09-0.59-1.76
			c0-0.69,0.2-1.27,0.6-1.76c0.4-0.49,0.84-0.86,1.31-1.12c0.66,0.52,1.47,0.97,2.43,1.35s2,0.57,3.14,0.57
			c1.16,0,1.97-0.18,2.45-0.53c0.47-0.35,0.71-0.77,0.71-1.24c0-0.47-0.19-0.83-0.57-1.08c-0.38-0.25-0.91-0.49-1.6-0.73
			L261.79,261.38z"/>
		<path class="st1" d="M294.29,261.98c0,1.28-0.22,2.44-0.66,3.5c-0.44,1.05-1.07,1.95-1.9,2.7c-0.83,0.75-1.83,1.32-3.02,1.72
			c-1.18,0.4-2.52,0.6-4.01,0.6s-2.83-0.2-4.01-0.6c-1.18-0.4-2.19-0.98-3.02-1.72c-0.83-0.75-1.46-1.64-1.9-2.7
			c-0.44-1.05-0.66-2.22-0.66-3.5v-13.55c0.26-0.05,0.67-0.11,1.24-0.2c0.57-0.08,1.11-0.12,1.63-0.12c0.54,0,1.02,0.04,1.44,0.12
			c0.41,0.08,0.76,0.23,1.05,0.44s0.5,0.51,0.64,0.89s0.21,0.88,0.21,1.49v10.82c0,1.14,0.31,2.02,0.94,2.66
			c0.63,0.64,1.44,0.96,2.43,0.96c1.02,0,1.83-0.32,2.45-0.96c0.61-0.64,0.92-1.53,0.92-2.66v-13.45c0.26-0.05,0.67-0.11,1.24-0.2
			c0.57-0.08,1.11-0.12,1.63-0.12c0.54,0,1.02,0.04,1.44,0.12c0.41,0.08,0.76,0.23,1.05,0.44c0.28,0.21,0.5,0.51,0.64,0.89
			c0.14,0.38,0.21,0.88,0.21,1.49V261.98z"/>
		<path class="st1" d="M298.79,251.72c0-1.02,0.29-1.82,0.89-2.41c0.59-0.59,1.4-0.89,2.41-0.89h11.71c0.17,0.26,0.31,0.6,0.44,1.03
			c0.13,0.43,0.2,0.88,0.2,1.35c0,0.9-0.2,1.54-0.59,1.92c-0.39,0.38-0.9,0.57-1.54,0.57h-7.49v3.3h7.98
			c0.17,0.26,0.31,0.6,0.44,1.01c0.13,0.41,0.2,0.86,0.2,1.33c0,0.9-0.19,1.54-0.57,1.92c-0.38,0.38-0.89,0.57-1.53,0.57h-6.53v3.73
			h9.12c0.17,0.26,0.31,0.6,0.44,1.03s0.2,0.88,0.2,1.35c0,0.9-0.2,1.54-0.59,1.93c-0.39,0.39-0.9,0.58-1.54,0.58h-10.36
			c-1.02,0-1.82-0.3-2.41-0.89c-0.59-0.59-0.89-1.4-0.89-2.41V251.72z"/>
		<path class="st1" d="M324.41,262.97v6.81c-0.26,0.07-0.67,0.14-1.22,0.21c-0.56,0.07-1.11,0.11-1.65,0.11
			c-0.54,0-1.02-0.04-1.44-0.12c-0.41-0.08-0.76-0.23-1.03-0.44c-0.27-0.21-0.48-0.51-0.62-0.89c-0.14-0.38-0.21-0.88-0.21-1.49
			v-16.71c0-0.5,0.14-0.88,0.41-1.15c0.27-0.27,0.64-0.49,1.12-0.66c0.8-0.28,1.74-0.49,2.8-0.62c1.06-0.13,2.2-0.2,3.41-0.2
			c3.26,0,5.72,0.69,7.38,2.06c1.66,1.37,2.48,3.23,2.48,5.57c0,1.47-0.38,2.72-1.14,3.76c-0.76,1.04-1.66,1.85-2.7,2.41
			c0.85,1.16,1.69,2.25,2.52,3.26c0.83,1.02,1.48,1.94,1.95,2.77c-0.24,0.83-0.67,1.46-1.29,1.9c-0.63,0.44-1.33,0.66-2.11,0.66
			c-0.52,0-0.97-0.06-1.35-0.18s-0.71-0.28-0.99-0.5s-0.54-0.47-0.78-0.78c-0.24-0.31-0.46-0.64-0.67-0.99l-2.98-4.79H324.41z
			 M326.65,258.25c0.9,0,1.61-0.23,2.13-0.69c0.52-0.46,0.78-1.14,0.78-2.04s-0.29-1.58-0.87-2.04c-0.58-0.46-1.5-0.69-2.75-0.69
			c-0.35,0-0.64,0.01-0.85,0.04c-0.21,0.02-0.45,0.06-0.71,0.11v5.32H326.65z"/>
		<path class="st1" d="M338.32,253.39c-0.17-0.26-0.32-0.62-0.46-1.06s-0.21-0.92-0.21-1.42c0-0.92,0.21-1.58,0.62-1.99
			c0.41-0.4,0.95-0.6,1.61-0.6h15.47c0.17,0.26,0.32,0.62,0.46,1.06c0.14,0.45,0.21,0.92,0.21,1.42c0,0.92-0.21,1.58-0.62,1.99
			c-0.41,0.4-0.95,0.6-1.61,0.6h-3.94v16.39c-0.26,0.07-0.67,0.14-1.22,0.21c-0.56,0.07-1.11,0.11-1.65,0.11
			c-0.54,0-1.02-0.04-1.44-0.12c-0.41-0.08-0.76-0.23-1.05-0.44c-0.28-0.21-0.5-0.51-0.64-0.89c-0.14-0.38-0.21-0.88-0.21-1.49
			v-13.77H338.32z"/>
		<path class="st1" d="M359.04,251.72c0-1.02,0.29-1.82,0.89-2.41c0.59-0.59,1.4-0.89,2.41-0.89h11.71c0.17,0.26,0.31,0.6,0.44,1.03
			c0.13,0.43,0.2,0.88,0.2,1.35c0,0.9-0.2,1.54-0.59,1.92c-0.39,0.38-0.9,0.57-1.54,0.57h-7.49v3.3h7.98
			c0.17,0.26,0.31,0.6,0.44,1.01c0.13,0.41,0.2,0.86,0.2,1.33c0,0.9-0.19,1.54-0.57,1.92c-0.38,0.38-0.89,0.57-1.53,0.57h-6.53v3.73
			h9.12c0.17,0.26,0.31,0.6,0.44,1.03s0.2,0.88,0.2,1.35c0,0.9-0.2,1.54-0.59,1.93c-0.39,0.39-0.9,0.58-1.54,0.58h-10.36
			c-1.02,0-1.82-0.3-2.41-0.89c-0.59-0.59-0.89-1.4-0.89-2.41V251.72z"/>
	</g>
</g>
</svg>
